<?xml version="1.0" encoding="UTF-8"?>
<svg xmlns="http://www.w3.org/2000/svg" xmlns:xlink="http://www.w3.org/1999/xlink" width="900" height="900" viewBox="0 0 900 900">
<path fill="none" stroke-width="1" stroke-linecap="butt" stroke-linejoin="miter" stroke="rgb(0%, 0%, 0%)" stroke-opacity="1" stroke-miterlimit="10" d="M 72.851562 385.695312 C 65.070312 385.695312 59.539062 384.765625 56.25 382.910156 C 52.734375 380.925781 50.976562 377.539062 50.976562 372.753906 C 50.976562 369.890625 51.742188 366.632812 53.273438 362.988281 C 53.695312 361.980469 54.589844 360.109375 55.957031 357.375 L 57.617188 358.351562 C 56.511719 360.890625 55.785156 362.84375 55.445312 364.210938 C 55.101562 365.578125 54.929688 366.878906 54.929688 368.117188 C 54.929688 371.664062 56.804688 374.152344 60.546875 375.585938 C 63.347656 376.660156 67.449219 377.195312 72.851562 377.195312 L 93.652344 377.195312 C 98.828125 377.195312 103.171875 376.53125 106.6875 375.195312 C 110.890625 373.601562 112.988281 371.355469 112.988281 368.457031 C 112.988281 366.277344 112.191406 364.4375 110.59375 362.9375 C 109.78125 362.160156 108.203125 361.148438 105.859375 359.914062 L 104.25 361.425781 L 98.484375 357.03125 C 96.46875 355.339844 95.460938 354.019531 95.460938 353.078125 C 95.460938 347.476562 96.828125 343.082031 99.5625 339.890625 C 102.101562 336.960938 106.476562 334.328125 112.695312 331.984375 L 126.464844 326.609375 L 126.464844 335.058594 L 116.257812 338.476562 C 110.695312 340.363281 106.769531 341.878906 104.492188 343.015625 C 102.570312 343.992188 101.609375 344.773438 101.609375 345.359375 C 101.609375 346.109375 102.652344 347.265625 104.734375 348.828125 C 106.039062 349.804688 107.355469 350.78125 108.691406 351.757812 C 111.554688 353.9375 114.144531 356.085938 116.453125 358.203125 C 118.441406 360.027344 120.296875 361.914062 122.023438 363.867188 C 123.09375 365.070312 124.820312 367.140625 127.195312 370.070312 C 128.726562 371.921875 130.226562 373.46875 131.6875 374.707031 C 133.675781 376.367188 135.398438 377.195312 136.867188 377.195312 L 143.261719 377.195312 L 143.261719 385.695312 L 137.257812 385.695312 C 134.585938 385.695312 131.789062 384.328125 128.859375 381.59375 C 127.425781 380.257812 125.390625 377.882812 122.753906 374.460938 C 121.160156 372.414062 120.183594 371.175781 119.824219 370.75 C 119.011719 369.773438 117.773438 368.488281 116.113281 366.894531 C 116.113281 372.6875 114.304688 377.214844 110.695312 380.46875 C 106.820312 383.953125 101.058594 385.695312 93.40625 385.695312 Z M 163.964844 385.695312 L 139.84375 385.695312 L 139.84375 377.195312 L 159.035156 377.195312 L 153.222656 335.789062 L 150.683594 334.570312 C 150.683594 332.324219 150.878906 330.214844 151.269531 328.246094 C 151.660156 326.277344 152.246094 324.367188 153.027344 322.507812 L 153.761719 323.046875 C 153.761719 324.933594 154.816406 326.351562 156.933594 327.296875 C 158.5625 327.945312 160.207031 328.597656 161.863281 329.25 C 161.863281 330.875 161.734375 332.617188 161.472656 334.472656 C 161.214844 336.328125 160.90625 337.710938 160.546875 338.625 L 158.203125 337.84375 L 163.964844 376.125 Z M 203.371094 385.695312 L 198.292969 385.695312 C 196.109375 385.695312 193.652344 385.203125 190.917969 384.226562 C 187.761719 383.089844 184.976562 381.527344 182.566406 379.539062 C 180.679688 381.851562 178.75 383.457031 176.78125 384.351562 C 174.8125 385.246094 171.941406 385.695312 168.164062 385.695312 L 160.546875 385.695312 L 160.546875 377.195312 L 168.019531 377.195312 C 170.980469 377.195312 173.617188 376.449219 175.925781 374.953125 C 177.71875 373.78125 179.347656 372.136719 180.808594 370.019531 C 182.796875 367.15625 185.238281 364.664062 188.136719 362.546875 C 190.738281 360.660156 193.132812 359.457031 195.3125 358.9375 C 197.558594 362.351562 199.347656 365.429688 200.683594 368.164062 C 202.472656 371.875 203.367188 374.886719 203.371094 377.195312 L 203.371094 385.695312 M 197.753906 376.074219 C 197.332031 374.1875 196.679688 372.332031 195.800781 370.507812 C 195.050781 368.976562 194.058594 367.398438 192.824219 365.773438 C 191.261719 366.164062 189.941406 366.894531 188.867188 367.96875 C 188.152344 368.652344 187.304688 369.808594 186.328125 371.4375 C 187.5 372.703125 189.152344 373.84375 191.285156 374.851562 C 193.417969 375.863281 195.425781 376.480469 197.316406 376.710938 Z M 224.070312 385.695312 L 199.949219 385.695312 L 199.949219 377.195312 L 219.140625 377.195312 L 213.328125 335.789062 L 210.789062 334.570312 C 210.789062 332.324219 210.984375 330.214844 211.375 328.246094 C 211.765625 326.277344 212.351562 324.367188 213.132812 322.507812 L 213.867188 323.046875 C 213.867188 324.933594 214.921875 326.351562 217.039062 327.296875 C 218.667969 327.945312 220.3125 328.597656 221.96875 329.25 C 221.96875 330.875 221.839844 332.617188 221.578125 334.472656 C 221.320312 336.328125 221.011719 337.710938 220.652344 338.625 L 218.308594 337.84375 L 224.070312 376.125 Z M 240.574219 373.242188 C 240.574219 375.847656 240.101562 378.371094 239.15625 380.8125 C 238.671875 382.113281 237.613281 384.179688 235.984375 387.011719 L 235.105469 386.523438 C 235.203125 385.578125 235.292969 384.488281 235.375 383.25 C 235.457031 382.015625 235.496094 381.183594 235.496094 380.761719 C 235.496094 377.375 235.226562 372.648438 234.691406 366.578125 C 234.152344 360.507812 233.511719 354.167969 232.761719 347.558594 C 232.304688 343.554688 231.800781 339.46875 231.25 335.304688 C 231.898438 333.871094 232.640625 332.324219 233.46875 330.664062 C 234.300781 329.003906 235.089844 327.441406 235.835938 325.976562 C 236.359375 329.6875 237.019531 334.765625 237.816406 341.210938 C 238.613281 347.65625 239.238281 353.46875 239.695312 358.640625 C 240.28125 365.085938 240.574219 369.953125 240.574219 373.242188 Z M 323.191406 379.640625 C 323.191406 384.847656 321.972656 388.980469 319.53125 392.039062 C 317.351562 394.742188 314.144531 396.679688 309.910156 397.851562 C 306.332031 398.828125 301.789062 399.316406 296.289062 399.316406 C 290.007812 399.316406 285.140625 398.160156 281.691406 395.851562 C 277.914062 393.3125 276.027344 389.519531 276.027344 384.472656 C 276.027344 381.671875 276.433594 378.757812 277.246094 375.734375 C 277.929688 373.160156 278.972656 370.34375 280.371094 367.285156 C 281.378906 365.070312 282.746094 362.402344 284.472656 359.277344 L 286.035156 360.203125 C 284.832031 362.386719 283.820312 364.339844 283.007812 366.0625 C 281.933594 368.375 281.136719 370.441406 280.613281 372.265625 C 279.996094 374.480469 279.6875 376.628906 279.6875 378.710938 C 279.6875 382.714844 281.144531 385.742188 284.058594 387.792969 C 286.972656 389.84375 291.015625 390.867188 296.191406 390.867188 C 301.691406 390.867188 306.785156 389.925781 311.472656 388.039062 C 316.617188 385.953125 319.191406 383.464844 319.191406 380.566406 C 319.191406 377.410156 318.683594 372.054688 317.675781 364.5 C 316.894531 358.707031 315.933594 352.230469 314.792969 345.070312 L 313.183594 335.59375 L 310.9375 334.421875 C 310.9375 330.0625 311.832031 326.089844 313.621094 322.507812 L 314.453125 322.507812 C 314.582031 323.746094 314.8125 324.667969 315.136719 325.269531 C 315.460938 325.871094 316 326.320312 316.746094 326.609375 C 317.757812 327.035156 318.863281 327.539062 320.066406 328.125 C 320.949219 328.546875 321.710938 328.921875 322.363281 329.25 C 322.363281 331.527344 322.28125 333.1875 322.121094 334.226562 C 321.957031 335.269531 321.628906 336.734375 321.144531 338.625 L 318.359375 337.742188 C 318.425781 338.460938 318.894531 341.730469 319.777344 347.558594 C 320.785156 354.363281 321.535156 359.878906 322.019531 364.109375 C 322.800781 370.882812 323.191406 376.058594 323.191406 379.640625 Z M 346.144531 385.695312 L 339.308594 385.695312 C 337.09375 385.695312 335.320312 384.796875 333.984375 383.007812 C 332.8125 381.445312 331.925781 379.117188 331.324219 376.023438 C 330.722656 372.933594 330.257812 369.125 329.933594 364.601562 C 329.738281 360.921875 329.535156 357.144531 329.324219 353.273438 C 329.113281 349.398438 328.835938 346.460938 328.492188 344.457031 C 328.152344 342.457031 327.6875 340.820312 327.101562 339.550781 C 326.386719 337.988281 325.390625 336.621094 324.125 335.449219 L 330.128906 325.976562 C 331.398438 329.882812 332.292969 334.554688 332.8125 339.992188 C 333.140625 343.375 333.464844 351.382812 333.789062 364.015625 C 334.375 369.808594 335.222656 373.519531 336.328125 375.148438 C 337.242188 376.515625 338.234375 377.195312 339.308594 377.195312 L 346.144531 377.195312 Z M 385.546875 385.695312 L 380.46875 385.695312 C 378.285156 385.695312 375.828125 385.203125 373.09375 384.226562 C 369.9375 383.089844 367.152344 381.527344 364.742188 379.539062 C 362.855469 381.851562 360.925781 383.457031 358.957031 384.351562 C 356.988281 385.246094 354.117188 385.695312 350.339844 385.695312 L 342.722656 385.695312 L 342.722656 377.195312 L 350.195312 377.195312 C 353.15625 377.195312 355.792969 376.449219 358.101562 374.953125 C 359.894531 373.78125 361.523438 372.136719 362.984375 370.019531 C 364.972656 367.15625 367.414062 364.664062 370.3125 362.546875 C 372.914062 360.660156 375.308594 359.457031 377.488281 358.9375 C 379.734375 362.351562 381.523438 365.429688 382.859375 368.164062 C 384.648438 371.875 385.542969 374.886719 385.546875 377.195312 L 385.546875 385.695312 M 379.929688 376.074219 C 379.507812 374.1875 378.855469 372.332031 377.976562 370.507812 C 377.226562 368.976562 376.234375 367.398438 375 365.773438 C 373.4375 366.164062 372.117188 366.894531 371.042969 367.96875 C 370.328125 368.652344 369.480469 369.808594 368.503906 371.4375 C 369.675781 372.703125 371.328125 373.84375 373.460938 374.851562 C 375.59375 375.863281 377.601562 376.480469 379.492188 376.710938 Z M 424.953125 385.695312 L 382.128906 385.695312 L 382.128906 377.195312 L 419.289062 377.195312 C 417.007812 373.746094 414.40625 370.742188 411.476562 368.1875 C 408.542969 365.632812 404.589844 362.875 399.609375 359.914062 L 398 361.425781 L 392.234375 357.03125 C 390.21875 355.339844 389.210938 354.019531 389.210938 353.078125 C 389.210938 347.476562 390.578125 343.082031 393.3125 339.890625 C 395.847656 336.960938 400.226562 334.328125 406.445312 331.984375 L 420.214844 326.609375 L 420.214844 335.058594 L 410.007812 338.476562 C 405.941406 339.8125 402.652344 341.03125 400.148438 342.140625 C 396.957031 343.539062 395.359375 344.613281 395.359375 345.359375 C 395.359375 346.109375 396.402344 347.265625 398.484375 348.828125 C 399.789062 349.804688 401.105469 350.78125 402.441406 351.757812 C 407.390625 355.5 411.703125 359.425781 415.382812 363.523438 C 419.351562 367.921875 422.542969 372.476562 424.953125 377.195312 Z M 524.070312 385.695312 L 477.492188 385.695312 C 471.242188 385.695312 466.257812 384.601562 462.546875 382.421875 C 457.894531 379.6875 455.566406 375.40625 455.566406 369.578125 C 455.566406 366.554688 456.25 363.460938 457.617188 360.304688 C 458.105469 359.164062 459.277344 357 461.132812 353.808594 L 462.597656 354.734375 C 461.882812 356.234375 461.179688 357.730469 460.5 359.226562 C 459.554688 361.539062 459.082031 363.605469 459.082031 365.429688 C 459.082031 369.269531 461.101562 372.25 465.136719 374.367188 C 468.75 376.253906 473.324219 377.195312 478.859375 377.195312 L 520.214844 377.195312 L 520.214844 375.878906 C 520.214844 372.234375 519.773438 369.261719 518.898438 366.96875 C 518.015625 364.671875 516.519531 362.710938 514.40625 361.085938 L 518.164062 353.125 C 519.597656 354.914062 520.460938 356.039062 520.75 356.492188 C 522.964844 360.140625 524.070312 365.445312 524.070312 372.414062 L 524.070312 385.695312 M 501.074219 341.308594 L 497.460938 348.390625 L 489.453125 344.289062 L 493.164062 337.207031 L 501.074219 341.308594 M 489.941406 345.851562 L 486.28125 352.832031 L 478.222656 348.679688 L 482.03125 341.648438 Z M 547.019531 385.695312 L 540.183594 385.695312 C 537.96875 385.695312 536.195312 384.796875 534.859375 383.007812 C 533.6875 381.445312 532.800781 379.117188 532.199219 376.023438 C 531.597656 372.933594 531.132812 369.125 530.808594 364.601562 C 530.613281 360.921875 530.410156 357.144531 530.199219 353.273438 C 529.988281 349.398438 529.710938 346.460938 529.367188 344.457031 C 529.027344 342.457031 528.5625 340.820312 527.976562 339.550781 C 527.261719 337.988281 526.265625 336.621094 525 335.449219 L 531.003906 325.976562 C 532.273438 329.882812 533.167969 334.554688 533.6875 339.992188 C 534.015625 343.375 534.339844 351.382812 534.664062 364.015625 C 535.25 369.808594 536.097656 373.519531 537.203125 375.148438 C 538.117188 376.515625 539.109375 377.195312 540.183594 377.195312 L 547.019531 377.195312 Z M 571.4375 385.695312 L 543.605469 385.695312 L 543.605469 377.195312 L 567.875 377.195312 C 567.875 373.355469 567.417969 370.425781 566.507812 368.40625 C 565.886719 367.007812 564.359375 364.992188 561.914062 362.351562 L 565.726562 354.394531 C 568.070312 357.355469 569.53125 359.667969 570.117188 361.328125 C 571 363.835938 571.4375 367.984375 571.4375 373.78125 L 571.4375 385.695312 M 566.457031 397.558594 L 562.648438 404.640625 L 554.738281 400.539062 L 558.351562 393.40625 Z M 620.3125 385.695312 C 620.3125 389.273438 618.785156 392.984375 615.726562 396.828125 C 613.054688 400.210938 609.734375 403.125 605.765625 405.566406 C 601.988281 407.910156 598.878906 409.082031 596.4375 409.082031 C 594.191406 409.082031 591.765625 408.757812 589.164062 408.105469 C 587.175781 407.617188 584.800781 406.851562 582.03125 405.8125 C 579.6875 404.929688 577.363281 404.054688 575.050781 403.171875 L 575.882812 401.21875 C 578.03125 401.644531 580.265625 402.074219 582.59375 402.515625 C 584.921875 402.953125 587.03125 403.171875 588.917969 403.171875 C 593.085938 403.171875 597.429688 401.839844 601.953125 399.171875 C 606.054688 396.730469 609.554688 393.644531 612.453125 389.917969 C 615.351562 386.191406 616.796875 382.828125 616.796875 379.835938 C 616.796875 377.261719 616.050781 374.5625 614.554688 371.726562 C 613.347656 369.449219 611.65625 367.105469 609.476562 364.695312 L 612.257812 357.03125 C 614.925781 359.503906 616.894531 361.980469 618.164062 364.453125 C 619.597656 367.253906 620.3125 370.378906 620.3125 373.828125 Z M 620.3125 400 "/>
</svg>
